# xmcd CD database file
#
# Track frame offsets:
#	150
#	15303
#	27564
#	47999
#	62546
#	78249
#	97559
#	109932
#	129941
#	143094
#
# Disc length: 2054 seconds
#
# Revision: 1
# Processed by: cddbd v1.5.2PL0 Copyright (c) Steve Scherf et al.
# Submitted via: jetAudio 7
#
DISCID=7208040a
DTITLE=Various Artist - Country's Golden Hits
DYEAR=1900
DGENRE=Country
TTITLE0=Home
TTITLE1=When The Snow Is On The Roses
TTITLE2=Sunday Morning Coming Down
TTITLE3=No Earthly Good
TTITLE4=The Wonders You Perform
TTITLE5=Feelings
TTITLE6=We Had It All
TTITLE7=Whoever Finds This, I Love You
TTITLE8=I Will Always Love You
TTITLE9=America, The Beatuful (1976)
EXTD=
EXTT0=
EXTT1=
EXTT2=
EXTT3=
EXTT4=
EXTT5=
EXTT6=
EXTT7=
EXTT8=
EXTT9=
PLAYORDER=
